HIERARCHY
ROOT Hips
{
 OFFSET 0.000000 0.000000 0.000000
 CHANNELS 6 Xposition Yposition Zposition Yrotation Xrotation Zrotation
 JOINT Chest
 {
  OFFSET 0.000000 8.841881 -6.654894
  CHANNELS 3 Yrotation Xrotation Zrotation
  JOINT Chest2
  {
   OFFSET 0.000000 7.072353 0.028336
   CHANNELS 3 Yrotation Xrotation Zrotation
   JOINT Chest3
   {
    OFFSET 0.000000 10.125157 -0.014641
    CHANNELS 3 Yrotation Xrotation Zrotation
    JOINT Chest4
    {
     OFFSET 0.000000 10.441534 -0.016102
     CHANNELS 3 Yrotation Xrotation Zrotation
     JOINT Neck
     {
      OFFSET 0.000000 16.849355 0.013667
      CHANNELS 3 Yrotation Xrotation Zrotation
      JOINT Head
      {
       OFFSET 0.000000 10.107081 0.000000
       CHANNELS 3 Yrotation Xrotation Zrotation
       End Site
       {
        OFFSET 0.000000 15.162723 0.000000
       }
      }
     }
     JOINT RightCollar
     {
      OFFSET -2.775264 10.553866 0.006834
      CHANNELS 3 Yrotation Xrotation Zrotation
      JOINT RightShoulder
      {
       OFFSET -16.020521 0.000000 0.000000
       CHANNELS 3 Yrotation Xrotation Zrotation
       JOINT RightElbow
       {
        OFFSET -23.902096 0.000000 0.000000
        CHANNELS 3 Yrotation Xrotation Zrotation
        JOINT RightWrist
        {
         OFFSET -23.631001 0.000000 -0.000566
         CHANNELS 3 Yrotation Xrotation Zrotation
         End Site
         {
          OFFSET -18.828190 0.690323 0.103033
         }
        }
       }
      }
     }
     JOINT LeftCollar
     {
      OFFSET 2.775264 10.553866 0.006834
      CHANNELS 3 Yrotation Xrotation Zrotation
      JOINT LeftShoulder
      {
       OFFSET 16.020521 0.000000 0.000000
       CHANNELS 3 Yrotation Xrotation Zrotation
       JOINT LeftElbow
       {
        OFFSET 23.902096 0.000000 0.000000
        CHANNELS 3 Yrotation Xrotation Zrotation
        JOINT LeftWrist
        {
         OFFSET 23.631001 0.000000 -0.000566
         CHANNELS 3 Yrotation Xrotation Zrotation
         End Site
         {
          OFFSET 18.828190 0.690323 0.103033
         }
        }
       }
      }
     }
    }
   }
  }
 }
 JOINT RightHip
 {
  OFFSET -9.646452 0.046004 -0.007286
  CHANNELS 3 Yrotation Xrotation Zrotation
  JOINT RightKnee
  {
   OFFSET 0.000000 -48.923989 0.009793
   CHANNELS 3 Yrotation Xrotation Zrotation
   JOINT RightAnkle
   {
    OFFSET 0.000000 -37.831989 0.111451
    CHANNELS 3 Yrotation Xrotation Zrotation
    JOINT RightToe
    {
     OFFSET 0.000000 -8.084683 17.519885
     CHANNELS 3 Yrotation Xrotation Zrotation
     End Site
     {
      OFFSET 0.000000 -1.047441 5.170765
     }
    }
   }
  }
 }
 JOINT LeftHip
 {
  OFFSET 9.646452 0.044016 -0.006971
  CHANNELS 3 Yrotation Xrotation Zrotation
  JOINT LeftKnee
  {
   OFFSET 0.000000 -48.923989 0.009793
   CHANNELS 3 Yrotation Xrotation Zrotation
   JOINT LeftAnkle
   {
    OFFSET 0.000000 -37.831989 0.111451
    CHANNELS 3 Yrotation Xrotation Zrotation
    JOINT LeftToe
    {
     OFFSET 0.000000 -8.084683 17.519885
     CHANNELS 3 Yrotation Xrotation Zrotation
     End Site
     {
      OFFSET 0.000000 -1.047441 5.170765
     }
    }
   }
  }
 }
}
MOTION
Frames: 14
Frame Time: 0.004167
9.847113 96.152027 13.564570 -0.970290 10.081837 -0.162511 -0.264337 1.323078 1.164968 -0.246055 -12.892883 0.573835 -0.165106 -0.001032 0.364533 -0.029289 9.498910 0.105793 -0.608607 -2.481127 -0.528117 -1.113276 -4.612102 -0.960841 -1.959394 -5.429178 7.047009 -10.666874 -7.144458 70.030712 2.281946 -4.250168 -1.960011 -3.544637 2.333336 2.248136 -1.713586 -5.554272 -8.105767 9.928958 -7.302161 -66.925830 -2.456378 -2.200207 -5.051148 2.894909 3.076955 -2.229435 -4.594873 -3.734607 -0.280464 -0.929092 1.002809 0.038022 -6.728683 -5.749130 2.459913 -0.000000 -0.000000 0.000000 2.958905 -7.384091 3.244574 0.090138 4.567086 -0.121211 3.911813 -6.992705 -1.516966 -0.000000 0.000000 0.000000
9.854452 96.151904 13.554828 -0.977318 10.069396 -0.155715 -0.266366 1.321072 1.158485 -0.246361 -12.893846 0.570706 -0.165330 -0.001705 0.362296 -0.029463 9.498718 0.105145 -0.600995 -2.470484 -0.525022 -1.099299 -4.592259 -0.955429 -1.948294 -5.409909 7.025912 -10.671791 -7.154226 70.056781 2.279364 -4.250623 -1.964581 -3.552045 2.333775 2.247857 -1.705438 -5.535256 -8.093127 9.924464 -7.300200 -66.931745 -2.456515 -2.197040 -5.050072 2.891510 3.076983 -2.234198 -4.586555 -3.722620 -0.293461 -0.944288 0.986108 0.041130 -6.720325 -5.737418 2.457943 0.000000 0.000000 0.000000 2.966811 -7.371661 3.229177 0.089877 4.557021 -0.116261 3.916057 -6.985973 -1.514124 0.000000 0.000000 -0.000000
9.861866 96.151766 13.545019 -0.984383 10.056681 -0.148832 -0.268396 1.319152 1.151942 -0.246662 -12.894768 0.567547 -0.165551 -0.002350 0.360039 -0.029636 9.498535 0.104492 -0.593277 -2.459691 -0.521921 -1.085125 -4.572136 -0.950010 -1.937058 -5.390501 7.004468 -10.676645 -7.164106 70.083078 2.276766 -4.251219 -1.969271 -3.559574 2.334248 2.247487 -1.697135 -5.516037 -8.080347 9.919940 -7.298226 -66.937828 -2.456503 -2.193864 -5.048979 2.888156 3.077022 -2.239001 -4.578099 -3.710435 -0.306617 -0.959751 0.969446 0.044294 -6.711889 -5.725694 2.455909 -0.000000 -0.000000 0.000000 2.974787 -7.358992 3.213616 0.089478 4.547000 -0.111259 3.920465 -6.979375 -1.511299 0.000000 0.000000 0.000000
9.869330 96.151617 13.535164 -0.991472 10.043783 -0.141892 -0.270427 1.317288 1.145358 -0.246958 -12.895664 0.564369 -0.165769 -0.002975 0.357769 -0.029809 9.498357 0.103834 -0.585489 -2.448797 -0.518816 -1.070820 -4.551828 -0.944585 -1.925732 -5.371002 6.982793 -10.681461 -7.174060 70.109526 2.274159 -4.251908 -1.974041 -3.567185 2.334743 2.247057 -1.688729 -5.496684 -8.067474 9.915396 -7.296245 -66.944022 -2.456391 -2.190682 -5.047876 2.884831 3.077067 -2.243832 -4.569552 -3.698116 -0.319878 -0.975393 0.952811 0.047497 -6.703402 -5.713963 2.453833 0.000000 0.000000 -0.000000 2.982809 -7.346163 3.197947 0.088986 4.537009 -0.106222 3.924982 -6.972867 -1.508486 0.000000 -0.000000 -0.000000
9.876820 96.151463 13.525287 -0.998575 10.030795 -0.134923 -0.272458 1.315452 1.138753 -0.247253 -12.896546 0.561180 -0.165986 -0.003592 0.355492 -0.029982 9.498182 0.103174 -0.577665 -2.437854 -0.515708 -1.056449 -4.531427 -0.939154 -1.914360 -5.351456 6.961005 -10.686262 -7.184050 70.136051 2.271546 -4.252643 -1.978850 -3.574837 2.335249 2.246596 -1.680271 -5.477263 -8.054553 9.910841 -7.294259 -66.950273 -2.456229 -2.187498 -5.046768 2.881521 3.077117 -2.248675 -4.560961 -3.685730 -0.333191 -0.991126 0.936190 0.050721 -6.694889 -5.702229 2.451737 -0.000000 -0.000000 0.000000 2.990853 -7.333255 3.182226 0.088446 4.527032 -0.101167 3.929553 -6.966405 -1.505679 0.000000 0.000000 -0.000000
9.884310 96.151309 13.515410 -1.005679 10.017808 -0.127952 -0.274486 1.313615 1.132148 -0.247546 -12.897428 0.557991 -0.166202 -0.004208 0.353215 -0.030155 9.498006 0.102515 -0.569841 -2.426911 -0.512599 -1.042076 -4.511027 -0.933717 -1.902988 -5.331911 6.939220 -10.691073 -7.194038 70.162578 2.268934 -4.253378 -1.983660 -3.582488 2.335756 2.246135 -1.671811 -5.457843 -8.041631 9.906287 -7.292276 -66.956523 -2.456066 -2.184314 -5.045659 2.878209 3.077166 -2.253518 -4.552372 -3.673343 -0.346502 -1.006861 0.919571 0.053949 -6.686376 -5.690494 2.449643 -0.000000 -0.000000 0.000000 2.998896 -7.320345 3.166506 0.087904 4.517056 -0.096112 3.934124 -6.959943 -1.502870 -0.000000 -0.000000 0.000000
9.891774 96.151161 13.505555 -1.012772 10.004913 -0.121007 -0.276511 1.311747 1.125563 -0.247840 -12.898325 0.554812 -0.166419 -0.004835 0.350945 -0.030328 9.497828 0.101857 -0.562051 -2.416019 -0.509488 -1.027767 -4.490723 -0.928275 -1.891662 -5.312412 6.917557 -10.695919 -7.203985 70.189030 2.266328 -4.254066 -1.988431 -3.590099 2.336252 2.245702 -1.663400 -5.438491 -8.028752 9.901741 -7.290298 -66.962718 -2.455954 -2.181132 -5.044556 2.874882 3.077210 -2.258347 -4.543831 -3.661020 -0.359757 -1.022509 0.902941 0.057165 -6.677889 -5.678763 2.447571 0.000000 -0.000000 0.000000 3.006912 -7.307514 3.150844 0.087405 4.507065 -0.091075 3.938640 -6.953436 -1.500053 0.000000 -0.000000 0.000000
9.899188 96.151022 13.495746 -1.019843 9.992202 -0.114118 -0.278532 1.309820 1.119019 -0.248136 -12.899250 0.551653 -0.166637 -0.005481 0.348689 -0.030500 9.497644 0.101204 -0.554331 -2.405228 -0.506378 -1.013587 -4.470607 -0.922828 -1.880426 -5.293005 6.896132 -10.700823 -7.213853 70.215332 2.263733 -4.254658 -1.993122 -3.597629 2.336727 2.245329 -1.655088 -5.419274 -8.015963 9.897214 -7.288332 -66.968801 -2.455941 -2.177957 -5.043464 2.871524 3.077247 -2.263148 -4.535386 -3.648826 -0.372903 -1.037982 0.886289 0.060350 -6.669454 -5.667039 2.445543 -0.000000 -0.000000 0.000000 3.014879 -7.294839 3.135294 0.086994 4.497045 -0.086072 3.943049 -6.946841 -1.497223 0.000000 0.000000 -0.000000
9.906527 96.150900 13.486004 -1.026880 9.979767 -0.107313 -0.280547 1.307805 1.112536 -0.248435 -12.900216 0.548523 -0.166857 -0.006157 0.346452 -0.030672 9.497452 0.100556 -0.546717 -2.394588 -0.503269 -0.999600 -4.450774 -0.917377 -1.869325 -5.273736 6.875062 -10.705809 -7.223605 70.241409 2.261153 -4.255109 -1.997695 -3.605036 2.337169 2.245044 -1.646928 -5.400260 -8.003310 9.892715 -7.286381 -66.974716 -2.456078 -2.174790 -5.042388 2.868119 3.077272 -2.267907 -4.527083 -3.636828 -0.385885 -1.053191 0.869601 0.063489 -6.661098 -5.655327 2.443580 -0.000000 -0.000000 0.000000 3.022772 -7.282402 3.119911 0.086717 4.486981 -0.081123 3.947294 -6.940112 -1.494372 -0.000000 -0.000000 0.000000
9.913764 96.150797 13.476353 -1.033870 9.967699 -0.100619 -0.282556 1.305674 1.106134 -0.248740 -12.901238 0.545432 -0.167080 -0.006871 0.344242 -0.030844 9.497248 0.099916 -0.539242 -2.384150 -0.500163 -0.985873 -4.431317 -0.911922 -1.858406 -5.254653 6.854464 -10.710900 -7.233200 70.267185 2.258595 -4.255370 -2.002109 -3.612280 2.337568 2.244879 -1.638969 -5.381516 -7.990840 9.888255 -7.284450 -66.980408 -2.456414 -2.171634 -5.041332 2.864652 3.077282 -2.272610 -4.518968 -3.625092 -0.398650 -1.068048 0.852865 0.066563 -6.652845 -5.643630 2.441705 0.000000 -0.000000 0.000000 3.030568 -7.270280 3.104749 0.086618 4.476859 -0.076243 3.951322 -6.933203 -1.491495 0.000000 0.000000 0.000000
9.920875 96.150721 13.466814 -1.040802 9.956090 -0.094065 -0.284557 1.303396 1.099833 -0.249050 -12.902330 0.542391 -0.167307 -0.007634 0.342066 -0.031015 9.497031 0.099285 -0.531944 -2.373964 -0.497061 -0.972469 -4.412330 -0.906465 -1.847711 -5.235799 6.834456 -10.716121 -7.242601 70.292585 2.256062 -4.255396 -2.006324 -3.619322 2.337912 2.244862 -1.631262 -5.363109 -7.978598 9.883844 -7.282544 -66.985820 -2.457001 -2.168493 -5.040304 2.861109 3.077271 -2.277245 -4.511088 -3.613684 -0.411146 -1.082464 0.836069 0.069556 -6.644723 -5.631951 2.439937 -0.000000 0.000000 0.000000 3.038242 -7.258554 3.089865 0.086744 4.466663 -0.071452 3.955078 -6.926071 -1.488585 -0.000000 -0.000000 0.000000
9.927835 96.150676 13.457411 -1.047664 9.945030 -0.087679 -0.286549 1.300944 1.093654 -0.249369 -12.903504 0.539410 -0.167539 -0.008455 0.339931 -0.031185 9.496797 0.098666 -0.524856 -2.364080 -0.493963 -0.959455 -4.393906 -0.901006 -1.837288 -5.217223 6.815154 -10.721494 -7.251769 70.317534 2.253561 -4.255140 -2.010302 -3.626119 2.338191 2.245024 -1.623859 -5.345107 -7.966631 9.879490 -7.280668 -66.990897 -2.457886 -2.165370 -5.039307 2.857473 3.077238 -2.281796 -4.503490 -3.602668 -0.423317 -1.096350 0.819199 0.072451 -6.636757 -5.620295 2.438300 -0.000000 -0.000000 0.000000 3.045770 -7.247302 3.075313 0.087139 4.456380 -0.066766 3.958509 -6.918671 -1.485636 0.000000 0.000000 0.000000
9.934618 96.150666 13.448166 -1.054444 9.934613 -0.081490 -0.288532 1.298288 1.087617 -0.249697 -12.904775 0.536498 -0.167777 -0.009344 0.337842 -0.031355 9.496544 0.098061 -0.518014 -2.354549 -0.490872 -0.946895 -4.376139 -0.895547 -1.827181 -5.198970 6.796674 -10.727043 -7.260665 70.341955 2.251096 -4.254554 -2.014001 -3.632631 2.338393 2.245395 -1.616810 -5.327578 -7.954985 9.875204 -7.278827 -66.995582 -2.459121 -2.162266 -5.038347 2.853730 3.077176 -2.286251 -4.496219 -3.592113 -0.435112 -1.109618 0.802244 0.075230 -6.628973 -5.608665 2.436814 0.000000 -0.000000 0.000000 3.053130 -7.236603 3.061146 0.087850 4.445994 -0.062202 3.961560 -6.910956 -1.482641 -0.000000 -0.000000 0.000000
9.941263 96.150688 13.439028 -1.061107 9.924763 -0.075458 -0.290503 1.295494 1.081712 -0.250033 -12.906112 0.533649 -0.168020 -0.010279 0.335797 -0.031524 9.496277 0.097469 -0.511375 -2.345332 -0.487806 -0.934709 -4.358958 -0.890124 -1.817352 -5.181049 6.778919 -10.732958 -7.269394 70.365921 2.248664 -4.253592 -2.017423 -3.638878 2.338513 2.245955 -1.610132 -5.310507 -7.943606 9.870983 -7.277029 -66.999932 -2.460751 -2.159090 -5.037472 2.849829 3.077050 -2.290719 -4.489280 -3.582003 -0.446603 -1.122327 0.785276 0.077926 -6.621358 -5.597135 2.435469 -0.000000 -0.000000 -0.000000 3.060325 -7.226586 3.047297 0.088839 4.435883 -0.057747 3.964225 -6.903105 -1.479571 0.000000 -0.000000 -0.000000
